<?xml version="1.0" encoding="UTF-8" standalone="no"?>
<!-- Created with Inkscape (http://www.inkscape.org/) -->

<svg
   width="11"
   height="11"
   viewBox="0 0 2.9104166 2.9104167"
   version="1.1"
   id="svg5"
   inkscape:version="1.1.2 (b8e25be833, 2022-02-05)"
   sodipodi:docname="GM_layer_flag.svg"
   xmlns:inkscape="http://www.inkscape.org/namespaces/inkscape"
   xmlns:sodipodi="http://sodipodi.sourceforge.net/DTD/sodipodi-0.dtd"
   xmlns="http://www.w3.org/2000/svg"
   xmlns:svg="http://www.w3.org/2000/svg">
  <sodipodi:namedview
     id="namedview7"
     pagecolor="#ffffff"
     bordercolor="#666666"
     borderopacity="1.0"
     inkscape:pageshadow="2"
     inkscape:pageopacity="0.0"
     inkscape:pagecheckerboard="0"
     inkscape:document-units="mm"
     showgrid="true"
     units="px"
     inkscape:zoom="99.547474"
     inkscape:cx="9.3121398"
     inkscape:cy="7.6345483"
     inkscape:window-width="3840"
     inkscape:window-height="2126"
     inkscape:window-x="-11"
     inkscape:window-y="-11"
     inkscape:window-maximized="1"
     inkscape:current-layer="layer1">
    <inkscape:grid
       type="xygrid"
       id="grid824" />
  </sodipodi:namedview>
  <defs
     id="defs2" />
  <g
     inkscape:label="Calque 1"
     inkscape:groupmode="layer"
     id="layer1">
    <path
       style="fill:#000000;fill-opacity:0.501401;stroke:none;stroke-width:0.264583px;stroke-linecap:butt;stroke-linejoin:miter;stroke-opacity:1"
       d="M 0.26458333,2.9104167 V 0.2645833 H 2.9104167 V 2.9104167 L 1.5875,2.38125 Z"
       id="path859-1" />
    <path
       style="fill:#ff0000;fill-opacity:1;stroke:none;stroke-width:0.264583px;stroke-linecap:butt;stroke-linejoin:miter;stroke-opacity:1"
       d="M 0,2.6458334 V 0 H 2.6458334 V 2.6458334 L 1.3229167,2.1166667 Z"
       id="path859" />
    <g
       aria-label="GM"
       id="text3129"
       style="font-size:1.00367px;line-height:1.25;fill:#ffffff;fill-opacity:1;stroke-width:0.0250917"
       transform="translate(-1.3229166,-1.3229166)">
      <path
         d="M 2.2562251,2.5303466 V 2.4092985 h 0.3126667 v 0.2862028 q -0.045577,0.044107 -0.1323198,0.077922 -0.086253,0.033325 -0.1749561,0.033325 -0.1127169,0 -0.1965194,-0.047047 Q 1.981294,2.7121638 1.9391477,2.6244406 1.8970014,2.5362275 1.8970014,2.432822 q 0,-0.1122268 0.047047,-0.1994598 0.047047,-0.087233 0.1377106,-0.13379 0.0691,-0.035775 0.1720157,-0.035775 0.13379,0 0.2087712,0.056358 0.075471,0.055868 0.097035,0.1548631 l -0.144082,0.026954 Q 2.4003066,2.2490446 2.3581603,2.21866 2.3165041,2.1877854 2.2537747,2.1877854 q -0.095074,0 -0.1514326,0.060279 -0.055868,0.060279 -0.055868,0.1788767 0,0.1279091 0.056849,0.1921087 0.056849,0.06371 0.1489823,0.06371 0.045577,0 0.091154,-0.017643 0.046067,-0.018133 0.078902,-0.043617 v -0.091154 z"
         style="font-weight:bold;font-family:Arial;-inkscape-font-specification:'Arial Bold';fill:#ffffff;fill-opacity:1"
         id="path4201" />
      <path
         d="M 2.7007215,2.7944961 V 2.0760487 H 2.917824 L 3.0481834,2.5661219 3.1770727,2.0760487 H 3.3946652 V 2.7944961 H 3.2598951 V 2.2289516 L 3.1172838,2.7944961 H 2.9776129 L 2.8354917,2.2289516 v 0.5655445 z"
         style="font-weight:bold;font-family:Arial;-inkscape-font-specification:'Arial Bold';fill:#ffffff;fill-opacity:1"
         id="path4203" />
    </g>
  </g>
</svg>
