<?xml version="1.0" encoding="UTF-8" standalone="no"?>
<!-- Created with Inkscape (http://www.inkscape.org/) -->

<svg
   width="20"
   height="20"
   viewBox="0 0 5.2916665 5.2916666"
   version="1.1"
   id="svg1"
   xml:space="preserve"
   xmlns="http://www.w3.org/2000/svg"
   xmlns:svg="http://www.w3.org/2000/svg"><defs
     id="defs1" /><g
     id="layer1"
     transform="translate(-23.734602,-0.48363866)"><g
       id="g25"><path
         id="rect8-9"
         style="fill:none;stroke:#000000;stroke-width:0.132292;stroke-linecap:round"
         d="m 25.123665,1.8727009 h 2.519841 l 0.589013,2.5796872 h -3.704167 z" /><path
         id="path10-7"
         style="fill:#000000;fill-opacity:1;stroke:none;stroke-width:0.186349;stroke-linecap:square"
         d="m 26.068001,2.8296477 c -0.219614,2.643e-4 -0.428288,0.1160058 -0.524609,0.2965684 -0.01017,-9.827e-4 -0.02042,-0.00159 -0.03074,-0.00181 -0.199049,-6e-7 -0.386289,0.1408886 -0.419741,0.3230129 -0.03527,0.1920268 0.112303,0.3555306 0.331391,0.3555299 h 0.595039 l 0.848394,0 h 7.76e-4 0.464097 0.0024 c 0.108464,-0.0012 0.18319,-0.083493 0.168016,-0.182129 -0.01488,-0.096805 -0.11121,-0.1734008 -0.215504,-0.1734009 -0.02217,2.984e-4 -0.04368,0.00411 -0.06358,0.011263 -1.27e-4,-0.00375 -3.23e-4,-0.00751 -5.89e-4,-0.011263 -0.02148,-0.1821236 -0.199458,-0.3230125 -0.398507,-0.3230129 -0.08837,2.999e-4 -0.172461,0.028487 -0.237025,0.0798 -0.04849,-0.2208191 -0.267158,-0.3740887 -0.519747,-0.374562 z" /><path
         id="path10-7-9"
         style="fill:#000000;fill-opacity:1;stroke:none;stroke-width:0.131902;stroke-linecap:square"
         d="m 26.890577,2.1422925 c 0.138873,1.494e-4 0.271055,0.065102 0.331305,0.164747 0.0063,-5.348e-4 0.0127,-8.621e-4 0.01912,-9.812e-4 0.123786,-3e-7 0.237996,0.076375 0.255597,0.1733475 0.01818,0.1001589 -0.07304,0.1838021 -0.204292,0.1838017 h -0.356477 -0.508257 -4.65e-4 -0.278032 -0.0015 c -0.06505,-6.083e-4 -0.114997,-0.042527 -0.112083,-0.093266 0.0029,-0.050331 0.05683,-0.090536 0.12054,-0.090536 0.01356,1.571e-4 0.02691,0.00216 0.03946,0.00593 -1.3e-4,-0.00198 -2.17e-4,-0.00395 -2.62e-4,-0.00593 0.0031,-0.096972 0.105896,-0.1733476 0.229682,-0.1733475 0.05497,1.642e-4 0.10831,0.015541 0.150183,0.043408 0.02263,-0.1210719 0.155669,-0.2069004 0.315379,-0.2071674 z" /></g></g></svg>
