<?xml version="1.0" encoding="UTF-8" standalone="no"?>
<!-- Created with Inkscape (http://www.inkscape.org/) -->

<svg
   width="20"
   height="20"
   viewBox="0 0 5.2916665 5.2916666"
   version="1.1"
   id="svg1"
   xml:space="preserve"
   xmlns="http://www.w3.org/2000/svg"
   xmlns:svg="http://www.w3.org/2000/svg"><defs
     id="defs1" /><g
     id="layer1"
     transform="translate(-23.775711,-20.034405)"><path
       id="path10-7-8-3-3"
       style="fill:#000000;fill-opacity:1;stroke:none;stroke-width:0.371126;stroke-linecap:square"
       d="m 26.03848,21.671203 a 0.87673086,0.8767308 0 0 0 -0.826503,0.587912 0.58448629,0.58448712 0 0 0 -0.05023,-0.0034 0.58448629,0.58448712 0 0 0 -0.584488,0.584487 0.58448629,0.58448712 0 0 0 0.584488,0.584487 h 0.876733 1.250025 0.0011 0.683801 0.0036 a 0.29224436,0.29224372 0 0 0 0.288819,-0.292244 0.29224436,0.29224372 0 0 0 -0.292244,-0.292243 0.29224436,0.29224372 0 0 0 -0.100455,0.01932 0.58448774,0.58448712 0 0 0 0.0011,-0.01932 0.58448774,0.58448712 0 0 0 -0.584486,-0.584487 0.58448774,0.58448712 0 0 0 -0.388138,0.149546 0.87673086,0.8767308 0 0 0 -0.863032,-0.734035 z" /><g
       id="g7"
       transform="rotate(135,27.371969,22.758928)"><path
         id="rect6"
         style="stroke-width:0.132292;stroke-linecap:square"
         d="m 27.908224,20.56355 c -0.09069,0 -0.163814,0.07312 -0.163814,0.163814 v 0.100769 0.100769 0.163814 h 0.163814 0.201539 0.163814 v -0.163814 -0.100769 -0.100769 c 0,-0.09069 -0.07312,-0.163814 -0.163814,-0.163814 z" /><path
         id="rect7"
         style="fill:none;stroke:#000000;stroke-width:0.113663;stroke-linecap:square"
         d="m 27.937716,20.81884 h 0.142652 c 0.07558,0 0.136426,0.06085 0.136426,0.136426 v 0.473382 c 0,0.07558 -0.06085,0.136425 -0.136426,0.136425 h -0.142652 c -0.07558,0 -0.136425,-0.06085 -0.136425,-0.136425 v -0.473382 c 0,-0.07558 0.06085,-0.136426 0.136425,-0.136426 z" /></g><g
       id="g8"
       transform="translate(-0.21038714,-0.13229169)"><path
         style="fill:none;fill-opacity:1;stroke:#000000;stroke-width:0.132292;stroke-linecap:square;stroke-opacity:1"
         d="m 27.215292,21.886488 -1.852083,1.852083"
         id="path7" /><path
         style="fill:none;fill-opacity:1;stroke:#ffffff;stroke-width:0.132292;stroke-linecap:square;stroke-opacity:1"
         d="m 27.308837,21.980032 -1.852083,1.852083"
         id="path7-9" /></g></g></svg>
