<?xml version="1.0" encoding="UTF-8" standalone="no"?>
<!-- Created with Inkscape (http://www.inkscape.org/) -->

<svg
   width="20"
   height="20"
   viewBox="0 0 5.2916665 5.2916666"
   version="1.1"
   id="svg1"
   xml:space="preserve"
   xmlns="http://www.w3.org/2000/svg"
   xmlns:svg="http://www.w3.org/2000/svg"><defs
     id="defs1" /><g
     id="layer1"
     transform="translate(-10.715853,-7.0982218)"><g
       id="g14"
       transform="translate(-24.855689,9.6587577)"><g
         id="g11"
         transform="translate(0.39687253,-1.1760417)"><path
           id="path11"
           style="fill:#000000;fill-opacity:1;stroke:none;stroke-width:0;stroke-linecap:square"
           d="M 39.393417,2.9811301 A 0.2500004,0.25000004 0 0 1 39.143418,3.2311302 0.2500004,0.25000004 0 0 1 38.893417,2.9811301 0.2500004,0.25000004 0 0 1 39.143418,2.7311302 0.2500004,0.25000004 0 0 1 39.393417,2.9811301 Z" /><path
           id="path11-9"
           style="fill:none;fill-opacity:1;stroke:#000000;stroke-width:0.132292;stroke-linecap:square;stroke-dasharray:none;stroke-opacity:1"
           d="m 39.540291,2.9811301 a 0.39687489,0.39687498 0 0 1 -0.396872,0.396875 0.39687489,0.39687498 0 0 1 -0.396877,-0.396875 0.39687489,0.39687498 0 0 1 0.396877,-0.3968748 0.39687489,0.39687498 0 0 1 0.396872,0.3968748 z" /></g><path
         id="path12"
         style="fill:none;fill-opacity:1;stroke:#000000;stroke-width:0.132274;stroke-linecap:square;stroke-linejoin:round;stroke-dasharray:none;stroke-dashoffset:0;stroke-opacity:1"
         d="m 39.540073,1.4081297 c -0.451279,-3.241e-4 -0.529274,0.1322917 -0.921908,0.396875 0.392634,0.2645833 0.467876,0.3952678 0.921908,0.396875 0.454032,-0.00161 0.528756,-0.1322917 0.92139,-0.396875 -0.392634,-0.2645833 -0.470111,-0.3971991 -0.92139,-0.396875 z" /><path
         style="fill:none;fill-opacity:1;stroke:#000000;stroke-width:0.132292;stroke-linecap:square;stroke-linejoin:round;stroke-dasharray:none;stroke-dashoffset:0;stroke-opacity:1"
         d="M 39.54029,1.4082136 V 1.2613385"
         id="path13" /><path
         style="fill:none;fill-opacity:1;stroke:#000000;stroke-width:0.132292;stroke-linecap:square;stroke-linejoin:round;stroke-dasharray:none;stroke-dashoffset:0;stroke-opacity:1"
         d="m 40.069457,1.5259219 0.07344,-0.1271975"
         id="path13-5" /><path
         style="fill:none;fill-opacity:1;stroke:#000000;stroke-width:0.132292;stroke-linecap:square;stroke-linejoin:round;stroke-dasharray:none;stroke-dashoffset:0;stroke-opacity:1"
         d="M 39.011124,1.5259219 38.937684,1.3987244"
         id="path13-5-8" /></g><path
       id="rect8-3-1-3-6-9-4-6-4"
       style="fill:none;stroke:#000000;stroke-width:0.139023;stroke-linecap:square;stroke-dasharray:none"
       d="m 12.108281,9.3218954 h 2.506811 m 0,0.8443186 h -2.506811 m 0.835442,0.831246 V 8.4906494 m 0.835928,0 V 10.99746" /></g></svg>
