<?xml version="1.0" encoding="UTF-8" standalone="no"?>
<!-- Created with Inkscape (http://www.inkscape.org/) -->

<svg
   width="20"
   height="20"
   viewBox="0 0 5.2916665 5.2916666"
   version="1.1"
   id="svg1"
   xml:space="preserve"
   xmlns="http://www.w3.org/2000/svg"
   xmlns:svg="http://www.w3.org/2000/svg"><defs
     id="defs1" /><g
     id="layer1"
     transform="translate(-10.824184,-20.327387)"><path
       id="rect8-3-1-3-6-9-4-6"
       style="fill:none;stroke:#000000;stroke-width:0.139023;stroke-linecap:square;stroke-dasharray:none"
       d="m 12.216611,22.551061 h 2.506811 m 0,0.844319 h -2.506811 m 0.835442,0.831246 v -2.506811 m 0.835928,0 v 2.506811" /><g
       id="g19"
       transform="rotate(-45,14.991371,24.21394)"><path
         id="path18-0"
         style="fill:#000000;fill-opacity:1;stroke:none;stroke-width:0.396876;stroke-linecap:square;stroke-linejoin:round;stroke-dasharray:none;stroke-dashoffset:0;stroke-opacity:1"
         d="m 14.396058,24.163845 v 0.529166 a 0.3968747,0.3968747 0 0 0 0.396875,0.396875 0.3968747,0.3968747 0 0 0 0.396875,-0.396875 v -0.529166 h -0.264583 v 0.529166 a 0.13229166,0.13229166 0 0 1 -0.132292,0.132292 0.13229166,0.13229166 0 0 1 -0.132291,-0.132292 v -0.529166 z" /><path
         id="rect18-7"
         style="fill:none;stroke:#000000;stroke-width:0.069;stroke-linecap:square;stroke-linejoin:miter;stroke-dasharray:none;stroke-opacity:1"
         d="m 14.430804,23.933814 h 0.195469 v 0.195472 h -0.195469 z" /><path
         id="rect18-7-1"
         style="fill:none;stroke:#000000;stroke-width:0.069;stroke-linecap:square;stroke-linejoin:miter;stroke-dasharray:none;stroke-opacity:1"
         d="m 14.960027,23.93376 h 0.195469 v 0.195472 h -0.195469 z" /></g><path
       id="path19"
       style="stroke-width:0.137999;stroke-linecap:square"
       d="M 14.154211,23.39538 A 0.2645821,0.2645821 0 0 1 13.88963,23.659961 0.2645821,0.2645821 0 0 1 13.625047,23.39538 0.2645821,0.2645821 0 0 1 13.88963,23.130797 0.2645821,0.2645821 0 0 1 14.154211,23.39538 Z" /></g></svg>
