<?xml version="1.0" encoding="UTF-8" standalone="no"?>
<!-- Created with Inkscape (http://www.inkscape.org/) -->

<svg
   width="20"
   height="20"
   viewBox="0 0 5.2916665 5.2916666"
   version="1.1"
   id="svg1"
   xml:space="preserve"
   xmlns="http://www.w3.org/2000/svg"
   xmlns:svg="http://www.w3.org/2000/svg"><defs
     id="defs1" /><g
     id="layer1"
     transform="translate(-10.715855,-13.712805)"><g
       id="g16"
       transform="translate(-24.855688,14.832716)"><g
         id="g15"><path
           id="path12-3"
           style="fill:none;fill-opacity:1;stroke:#000000;stroke-width:0.132274;stroke-linecap:square;stroke-linejoin:round;stroke-dasharray:none;stroke-dashoffset:0;stroke-opacity:1"
           d="m 39.540291,2.8488385 c -0.451279,-3.241e-4 -0.529274,0.1322917 -0.921908,0.396875 0.392634,0.2645833 0.467876,0.3952678 0.921908,0.396875 0.454032,-0.00161 0.528756,-0.1322917 0.92139,-0.396875 -0.392634,-0.2645833 -0.470111,-0.3971991 -0.92139,-0.396875 z" /></g><g
         id="g13"
         transform="matrix(1,0,0,-1,-0.92477347,5.3975813)"><path
           style="fill:none;fill-opacity:1;stroke:#000000;stroke-width:0.132292;stroke-linecap:square;stroke-linejoin:round;stroke-dasharray:none;stroke-dashoffset:0;stroke-opacity:1"
           d="M 40.465064,1.7549928 V 1.6081177"
           id="path13-59" /><path
           style="fill:none;fill-opacity:1;stroke:#000000;stroke-width:0.132292;stroke-linecap:square;stroke-linejoin:round;stroke-dasharray:none;stroke-dashoffset:0;stroke-opacity:1"
           d="m 40.994231,1.8727011 0.07344,-0.1271975"
           id="path13-5-84" /><path
           style="fill:none;fill-opacity:1;stroke:#000000;stroke-width:0.132292;stroke-linecap:square;stroke-linejoin:round;stroke-dasharray:none;stroke-dashoffset:0;stroke-opacity:1"
           d="M 39.935898,1.8727011 39.862458,1.7455036"
           id="path13-5-8-8" /></g></g><path
       id="rect8-3-1-3-6-9-4-6-4-6"
       style="fill:none;stroke:#000000;stroke-width:0.139023;stroke-linecap:square;stroke-dasharray:none"
       d="m 12.108281,15.936478 h 2.506811 m 0,0.844319 h -2.506811 m 0.835442,0.831246 v -2.506811 m 0.835928,0 v 2.506811" /></g></svg>
