<?xml version="1.0" encoding="UTF-8" standalone="no"?>
<!-- Created with Inkscape (http://www.inkscape.org/) -->

<svg
   width="20"
   height="20"
   viewBox="0 0 5.2916665 5.2916666"
   version="1.1"
   id="svg1"
   xml:space="preserve"
   xmlns="http://www.w3.org/2000/svg"
   xmlns:svg="http://www.w3.org/2000/svg"><defs
     id="defs1" /><g
     id="layer1"
     transform="translate(-17.120018,-0.48363866)"><g
       id="g12"
       transform="translate(-2.5189258,9.5515219)"><path
         id="path9-5-7"
         style="fill:none;stroke:#000000;stroke-width:0.132292;stroke-linecap:square"
         d="m 21.321994,-7.1338007 5.45e-4,0.1571841 c -0.02677,0.1664122 0.132259,0.3082685 0.356583,0.3082683 0.224324,-3e-7 0.410651,-0.1418564 0.415951,-0.3082683 V -7.198913" /><path
         id="rect8-52"
         style="fill:none;stroke:#000000;stroke-width:0.132292;stroke-linecap:round"
         d="m 21.02486,-7.713469 h 2.51984 l 0.59216,2.5828372 h -3.704166 z" /><path
         id="path9-5"
         style="fill:#ffffff;fill-opacity:1;stroke:#000000;stroke-width:0.132292;stroke-linecap:square"
         d="m 22.095073,-7.2273895 c -0.0053,0.1664119 -0.191627,0.308268 -0.415951,0.3082683 -0.224324,2e-7 -0.383354,-0.1418561 -0.356583,-0.3082683 0.02536,-0.1576406 0.209815,-0.2794629 0.413178,-0.2794627 0.203362,2e-7 0.364356,0.1218224 0.359356,0.2794627 z" /><g
         id="g10"
         transform="translate(0,-0.15200952)"><path
           id="path9-9-47-4"
           style="fill:none;stroke:#000000;stroke-width:0.132292;stroke-linecap:square"
           d="m 22.517497,-5.9843985 -0.0032,0.2467572 c 0.0077,0.2436049 0.236129,0.4534964 0.509669,0.4534968 0.27354,3e-7 0.461525,-0.2098914 0.422335,-0.4534968 l -3.28e-4,-0.1275127" /><path
           id="path9-9-47"
           style="fill:#ffffff;fill-opacity:1;stroke:#000000;stroke-width:0.132292;stroke-linecap:square"
           d="m 23.445646,-5.9926667 c 0.03919,0.2436054 -0.148795,0.4534971 -0.422335,0.4534968 -0.27354,-4e-7 -0.501944,-0.2098919 -0.509669,-0.4534968 -0.0072,-0.2281978 0.184212,-0.4028612 0.427209,-0.4028615 0.242998,-2e-7 0.468085,0.1746633 0.504795,0.4028615 z" /></g></g></g></svg>
